{"title":"Mr. Joe B. Carvalho (2014) 1CD DVDScr X264 AC3 Chaudhary&amp;trade;","uid":9440249,"size":735177233,"categoryP":"video","categoryS":"movies","magnet":"?xt=urn:btih:a29388f3513b28081d8e1557c1af7ff929bce776&amp;dn=+Mr.+Joe+B.+Carvalho+%282014%29+1CD+DVDScr+X264+AC3+Chaudhary%26trade%3B&amp;tr=udp%3A%2F%2Ftracker.openbittorrent.com%3A80&amp;tr=udp%3A%2F%2Fopen.demonii.com%3A1337&amp;tr=udp%3A%2F%2Ftracker.coppersurfer.tk%3A6969&amp;tr=udp%3A%2F%2Fexodus.desync.com%3A6969","seeders":1,"leechers":0,"uploader":"Chaudhary1","files":2,"time":1388999398,"description":" &lt;a href=&quot;http://img843.imageshack.us/img843/3355/f8rv.png&quot; rel=&quot;nofollow&quot; target=&quot;_NEW&quot;&gt;http://img843.imageshack.us/img843/3355/f8rv.png&lt;/a&gt;\n &lt;a href=&quot;\nhttp://www.btpics.com/images/W217X.jpg&quot; rel=&quot;nofollow&quot; target=&quot;_NEW&quot;&gt;\nhttp://www.btpics.com/images/W217X.jpg&lt;/a&gt;\n\n\nComplete name : Mr. Joe B. Carvalho (2014) 1CD DVDScr X264 AC3 Chaudharyâ„¢ ExD XMR Exclusive.mkv\nSource : Team Telly untoiuced SCR\nFormat : Matroska\nFormat version : Version 4 / Version 2\nFile size : 697 MiB\nDuration : 2h 2mn\nOverall bit rate : 799 Kbps\nMovie name : Chaudharyâ„¢\n\n\nVideo\nID : 1\nFormat : AVC\nFormat/Info : Advanced Video Codec\nFormat profile : &lt;a class=&quot;__cf_email__&quot; href=&quot;/cdn-cgi/l/email-protection&quot; data-cfemail=&quot;86ceefe1eec6cab5a8b7&quot;&gt;[email&amp;#160;protected]&lt;/a&gt;&lt;script cf-hash='f9e31' type=&quot;text/javascript&quot;&gt;\n/* &lt;![CDATA[ */!function(){try{var t=&quot;currentScript&quot;in document?document.currentScript:function(){for(var t=document.getElementsByTagName(&quot;script&quot;),e=t.length;e--;)if(t[e].getAttribute(&quot;cf-hash&quot;))return t[e]}();if(t&amp;&amp;t.previousSibling){var e,r,n,i,c=t.previousSibling,a=c.getAttribute(&quot;data-cfemail&quot;);if(a){for(e=&quot;&quot;,r=parseInt(a.substr(0,2),16),n=2;a.length-n;n+=2)i=parseInt(a.substr(n,2),16)^r,e+=String.fromCharCode(i);e=document.createTextNode(e),c.parentNode.replaceChild(e,c)}}}catch(u){}}();/* ]]&gt; */&lt;/script&gt;\nFormat settings, CABAC : Yes\nFormat settings, ReFrames : 16 frames\nCodec ID : V_MPEG4/ISO/AVC\nDuration : 2h 2mn\nBit rate : 733 Kbps\nWidth : 640 pixels\nHeight : 272 pixels\nDisplay aspect ratio : 2.071\nOriginal display aspect ratio : 2.070\nFrame rate mode : Constant\nFrame rate : 29.970 fps\nColor space : YUV\nChroma subsampling : 4:2:0\nBit depth : 8 bits\nScan type : Progressive\nBits/(Pixel*Frame) : 0.140\nStream size : 628 MiB (90%)\nTitle : Chaudharyâ„¢\nWriting library : x264 core 138 r2358 \nLanguage : English\nDefault : Yes\nForced : No\nColor primaries : Generic film\nTransfer characteristics : BT.709\nMatrix coefficients : BT.709\n\nAudio\nID : 2\nFormat : AC-3\nFormat/Info : Audio Coding 3\nMode extension : CM (complete main)\nFormat settings, Endianness : Big\nCodec ID : A_AC3\nDuration : 2h 2mn\nBit rate mode : Constant\nBit rate : 64.0 Kbps\nChannel count : 2 channels\nChannel positions : Front: L R\nSampling rate : 44.1 KHz\nBit depth : 16 bits\nCompression mode : Lossy\nStream size : 55.9 MiB (8%)\nTitle : Chaudharyâ„¢\nDefault : Yes\nForced : No\n\n &lt;a href=&quot;\nhttp://i.imgur.com/hYY9wKZ.png&quot; rel=&quot;nofollow&quot; target=&quot;_NEW&quot;&gt;\nhttp://i.imgur.com/hYY9wKZ.png&lt;/a&gt; &lt;a href=&quot;\nhttp://i.imgur.com/8weP73T.png&quot; rel=&quot;nofollow&quot; target=&quot;_NEW&quot;&gt;\nhttp://i.imgur.com/8weP73T.png&lt;/a&gt; &lt;a href=&quot;\nhttp://i.imgur.com/L8zp8hf.png&quot; rel=&quot;nofollow&quot; target=&quot;_NEW&quot;&gt;\nhttp://i.imgur.com/L8zp8hf.png&lt;/a&gt; &lt;a href=&quot;\nhttp://i.imgur.com/nDBYTeF.png&quot; rel=&quot;nofollow&quot; target=&quot;_NEW&quot;&gt;\nhttp://i.imgur.com/nDBYTeF.png&lt;/a&gt; &lt;a href=&quot;\nhttp://i.imgur.com/A7wUVEs.png&quot; rel=&quot;nofollow&quot; target=&quot;_NEW&quot;&gt;\nhttp://i.imgur.com/A7wUVEs.png&lt;/a&gt; &lt;a href=&quot;\nhttp://i.imgur.com/EOJgulQ.png&quot; rel=&quot;nofollow&quot; target=&quot;_NEW&quot;&gt;\nhttp://i.imgur.com/EOJgulQ.png&lt;/a&gt; &lt;a href=&quot;\nhttp://i.imgur.com/7WTMtmy.png&quot; rel=&quot;nofollow&quot; target=&quot;_NEW&quot;&gt;\nhttp://i.imgur.com/7WTMtmy.png&lt;/a&gt; &lt;a href=&quot;\nhttp://i.imgur.com/3djO5St.png&quot; rel=&quot;nofollow&quot; target=&quot;_NEW&quot;&gt;\nhttp://i.imgur.com/3djO5St.png&lt;/a&gt; &lt;a href=&quot;\nhttp://i.imgur.com/DSsiWyD.png&quot; rel=&quot;nofollow&quot; target=&quot;_NEW&quot;&gt;\nhttp://i.imgur.com/DSsiWyD.png&lt;/a&gt; &lt;a href=&quot;\nhttp://i.imgur.com/jXGsEox.png&quot; rel=&quot;nofollow&quot; target=&quot;_NEW&quot;&gt;\nhttp://i.imgur.com/jXGsEox.png&lt;/a&gt;","torrent":{"xt":"urn:btih:a29388f3513b28081d8e1557c1af7ff929bce776","amp;dn":"+Mr.+Joe+B.+Carvalho+%282014%29+1CD+DVDScr+X264+AC3+Chaudhary%26trade%3B","amp;tr":["udp%3A%2F%2Ftracker.openbittorrent.com%3A80","udp%3A%2F%2Fopen.demonii.com%3A1337","udp%3A%2F%2Ftracker.coppersurfer.tk%3A6969","udp%3A%2F%2Fexodus.desync.com%3A6969"],"infoHash":"a29388f3513b28081d8e1557c1af7ff929bce776","infoHashBuffer":{"type":"Buffer","data":[162,147,136,243,81,59,40,8,29,142,21,87,193,175,127,249,41,188,231,118]},"announce":[],"urlList":[]}}